<svg width="380" height="228" viewBox="0 0 380 228" fill="none" xmlns="http://www.w3.org/2000/svg">
<g clip-path="url(#clip0_35_1534)">
<path d="M290.937 224.618C286.072 220.507 283.117 214.013 283.892 207.691C284.667 201.369 289.467 195.557 295.693 194.215C301.919 192.872 309.017 196.588 310.908 202.67C311.948 190.944 313.148 178.727 319.382 168.741C325.027 159.7 334.804 153.23 345.401 152.072C355.997 150.915 367.153 155.286 373.762 163.65C380.371 172.013 381.989 184.172 377.36 193.774C373.951 200.848 367.669 206.112 361.087 210.395C339.819 224.117 314.312 229.697 289.257 226.109L290.937 224.618Z" fill="#F2F2F2"/>
<path d="M363.284 155.529C354.54 162.65 346.519 170.615 339.336 179.308C328.095 192.866 318.999 208.067 312.364 224.381C311.879 225.571 313.811 226.09 314.291 224.913C325.147 198.398 342.477 175.029 364.697 156.942C365.694 156.129 364.273 154.723 363.284 155.529Z" fill="white"/>
<path d="M122.328 223.501C129.01 217.855 133.069 208.935 132.005 200.252C130.94 191.569 124.348 183.586 115.796 181.742C107.244 179.898 97.4958 185.002 94.8984 193.356C93.4689 177.251 91.8216 160.47 83.2589 146.755C75.5054 134.336 62.0764 125.449 47.5224 123.86C32.9683 122.27 17.6448 128.274 8.56794 139.761C-0.508893 151.249 -2.73132 167.949 3.62586 181.137C8.30897 190.853 16.9369 198.083 25.9768 203.965C54.8173 222.732 90.5939 230.559 124.636 225.549" fill="#F2F2F2"/>
<path d="M22.9602 128.607C34.9691 138.388 45.986 149.328 55.8516 161.268C65.7187 173.195 74.4056 186.052 81.7903 199.657C85.918 207.289 89.6261 215.14 92.8978 223.176C93.5649 224.811 90.9105 225.522 90.2508 223.906C84.4557 209.738 77.286 196.173 68.8446 183.404C60.4442 170.682 50.8294 158.804 40.1355 147.938C34.0869 141.796 27.7052 135.99 21.0192 130.548C19.6487 129.432 21.6011 127.5 22.9602 128.607Z" fill="white"/>
<path d="M272.77 226.69H113.345V63.1149C113.345 28.3132 141.658 0 176.46 0H209.655C244.457 0 272.77 28.3132 272.77 63.1149V226.69Z" fill="#F2F2F2"/>
<path d="M239.575 226.69H113.345V63.115C113.31 49.7797 117.533 36.7815 125.398 26.0128C125.688 25.6176 125.977 25.2276 126.276 24.8417C130.08 19.852 134.607 15.4576 139.708 11.8036C139.996 11.5939 140.286 11.3879 140.579 11.1819C144.848 8.2281 149.465 5.81345 154.326 3.99289C154.614 3.88348 154.908 3.77385 155.202 3.66871C159.599 2.09982 164.156 1.02514 168.79 0.46451C169.077 0.425265 169.372 0.394556 169.667 0.363846C174.183 -0.119003 178.737 -0.119003 183.253 0.363846C183.547 0.394556 183.842 0.425262 184.133 0.46493C188.766 1.0256 193.322 2.10015 197.717 3.66873C198.011 3.77387 198.305 3.88349 198.595 3.99311C203.396 5.79071 207.958 8.16933 212.181 11.0759C212.475 11.2774 212.768 11.4835 213.058 11.6895C215.917 13.7304 218.603 16.0042 221.087 18.4875C223.08 20.4794 224.937 22.6027 226.645 24.8431C226.942 25.2276 227.231 25.6177 227.521 26.0122C235.387 36.781 239.61 49.7795 239.575 63.115V226.69Z" fill="#CCCCCC"/>
<path d="M229.31 153.529C233.17 153.529 236.299 150.4 236.299 146.54C236.299 142.681 233.17 139.552 229.31 139.552C225.451 139.552 222.322 142.681 222.322 146.54C222.322 150.4 225.451 153.529 229.31 153.529Z" fill="#418596"/>
<path d="M259.71 221.79H254.355L251.807 201.136L259.711 201.136L259.71 221.79Z" fill="#FFB8B8"/>
<path d="M250.53 220.26H260.857V226.762H244.028C244.028 225.909 244.196 225.063 244.523 224.274C244.849 223.485 245.328 222.768 245.932 222.165C246.536 221.561 247.253 221.082 248.042 220.755C248.83 220.428 249.676 220.26 250.53 220.26Z" fill="#2F2E41"/>
<path d="M286.354 221.79H280.999L278.451 201.136L286.355 201.136L286.354 221.79Z" fill="#FFB8B8"/>
<path d="M277.174 220.26H287.501V226.762H270.671C270.671 225.909 270.839 225.063 271.166 224.274C271.493 223.485 271.972 222.768 272.576 222.165C273.18 221.561 273.896 221.082 274.685 220.755C275.474 220.428 276.32 220.26 277.174 220.26Z" fill="#2F2E41"/>
<path d="M232.847 147.925C232.462 147.357 232.206 146.712 232.097 146.035C231.988 145.357 232.029 144.665 232.217 144.005C232.405 143.345 232.735 142.734 233.184 142.216C233.633 141.698 234.191 141.284 234.817 141.005L253.021 90.8331L261.978 95.7212L241.194 143.667C241.593 144.751 241.582 145.943 241.161 147.019C240.741 148.094 239.94 148.978 238.912 149.503C237.883 150.028 236.697 150.157 235.579 149.866C234.462 149.575 233.49 148.884 232.847 147.925Z" fill="#FFB8B8"/>
<path d="M283.618 157.352C283.023 157.011 282.51 156.543 282.115 155.983C281.72 155.422 281.453 154.781 281.333 154.106C281.212 153.43 281.241 152.737 281.418 152.074C281.594 151.411 281.914 150.795 282.355 150.269L276.715 97.196L286.909 97.6617L289.253 149.866C290.087 150.664 290.6 151.741 290.693 152.892C290.787 154.043 290.455 155.189 289.761 156.112C289.066 157.034 288.057 157.67 286.925 157.899C285.793 158.128 284.616 157.933 283.618 157.352Z" fill="#FFB8B8"/>
<path d="M267.357 81.5399C273.281 81.5399 278.084 76.7369 278.084 70.8121C278.084 64.8873 273.281 60.0843 267.357 60.0843C261.432 60.0843 256.629 64.8873 256.629 70.8121C256.629 76.7369 261.432 81.5399 267.357 81.5399Z" fill="#FFB8B8"/>
<path d="M283.55 145.282H251.207L251.246 145.03C251.304 144.654 257.01 107.275 252.802 95.0465C252.38 93.8448 252.417 92.5293 252.906 91.3534C253.396 90.1774 254.303 89.224 255.453 88.6767C261.468 85.844 273.015 82.356 282.761 90.821C284.195 92.0871 285.315 93.6695 286.032 95.4431C286.749 97.2167 287.044 99.1328 286.892 101.04L283.55 145.282Z" fill="#418596"/>
<path d="M257.419 112.799L242.858 109.845L249.684 93.6711C250.092 92.1046 251.105 90.764 252.501 89.9434C253.896 89.1228 255.56 88.8893 257.128 89.2939C258.695 89.6986 260.038 90.7085 260.862 92.102C261.686 93.4956 261.924 95.159 261.523 96.7275L257.419 112.799Z" fill="#418596"/>
<path d="M276.068 118.284L275.193 98.2176C274.529 94.4455 276.688 90.8796 280.009 90.2967C283.331 89.716 286.575 92.3322 287.242 96.1321L290.532 114.882L276.068 118.284Z" fill="#418596"/>
<path d="M282.474 142.879C287.678 162.699 288.245 187.898 286.841 215.385L279.853 214.512L267.186 162.098L260.198 215.385L252.336 214.948C249.987 186.108 247.7 161.349 251.462 145.063L282.474 142.879Z" fill="#2F2E41"/>
<path d="M274.425 79.1029C272.424 81.2347 268.707 80.0903 268.446 77.1779C268.426 76.9518 268.427 76.7243 268.451 76.4984C268.585 75.2084 269.331 74.0371 269.152 72.675C269.112 72.336 268.986 72.0129 268.785 71.7364C267.19 69.6009 263.447 72.6916 261.942 70.7583C261.019 69.5729 262.104 67.7065 261.395 66.3816C260.461 64.6329 257.692 65.4955 255.956 64.5378C254.024 63.4723 254.14 60.5084 255.411 58.7056C256.962 56.5071 259.681 55.3339 262.366 55.1648C265.051 54.9957 267.718 55.7216 270.225 56.6985C273.073 57.8085 275.898 59.3426 277.651 61.8471C279.782 64.8929 279.987 68.9876 278.921 72.549C278.273 74.7155 276.059 77.362 274.425 79.1029Z" fill="#2F2E41"/>
<path d="M366.888 226.971H44.4153C44.2776 226.97 44.1457 226.915 44.0485 226.818C43.9513 226.72 43.8967 226.588 43.8967 226.451C43.8967 226.313 43.9513 226.181 44.0485 226.083C44.1457 225.986 44.2776 225.931 44.4153 225.931H366.888C367.026 225.931 367.158 225.986 367.255 226.083C367.352 226.181 367.407 226.313 367.407 226.451C367.407 226.588 367.352 226.72 367.255 226.818C367.158 226.915 367.026 226.97 366.888 226.971Z" fill="#3F3D56"/>
<path d="M204.851 179.299H148.069C147.321 179.303 146.602 179.01 146.07 178.485C145.538 177.96 145.236 177.245 145.23 176.497V49.7561C145.236 49.0083 145.538 48.2933 146.07 47.768C146.602 47.2427 147.321 46.95 148.069 46.954H204.851C205.598 46.95 206.317 47.2427 206.849 47.768C207.382 48.2933 207.684 49.0083 207.69 49.7561V176.497C207.684 177.245 207.382 177.96 206.849 178.485C206.317 179.01 205.598 179.303 204.851 179.299Z" fill="white"/>
<path d="M207.69 87.9633H145.23V88.8369H207.69V87.9633Z" fill="#CCCCCC"/>
<path d="M207.908 137.805H145.448V138.678H207.908V137.805Z" fill="#CCCCCC"/>
<path d="M165.759 46.954H164.885V179.736H165.759V46.954Z" fill="#CCCCCC"/>
<path d="M187.598 46.954H186.724V179.736H187.598V46.954Z" fill="#CCCCCC"/>
</g>
<defs>
<clipPath id="clip0_35_1534">
<rect width="380" height="227.187" fill="white"/>
</clipPath>
</defs>
</svg>
