<svg width="380" height="321" viewBox="0 0 380 321" fill="none" xmlns="http://www.w3.org/2000/svg">
<g clip-path="url(#clip0_35_1477)">
<path d="M309.48 154.74C309.48 159.245 309.291 163.705 308.912 168.119C308.614 171.564 308.207 174.978 307.691 178.362C307.143 181.944 306.471 185.484 305.676 188.98V188.984C305.156 191.285 304.585 193.567 303.963 195.831C302.159 202.411 299.915 208.862 297.246 215.141C296.666 216.507 296.067 217.864 295.449 219.211C293.111 224.313 290.493 229.283 287.607 234.097C279.514 247.615 269.411 259.824 257.646 270.303C256.373 271.436 255.082 272.549 253.774 273.644C225.995 296.849 190.935 309.536 154.74 309.48C69.2784 309.48 0 240.202 0 154.74C0 69.2784 69.2784 3.90692e-05 154.74 3.90692e-05C189.689 -0.0550674 223.618 11.7747 250.957 33.5472C252.238 34.5626 253.504 35.601 254.753 36.6621C260.849 41.8321 266.538 47.4634 271.77 53.5062H271.774C296.143 81.5974 309.535 117.552 309.48 154.74Z" fill="#F2F2F2"/>
<path d="M45.679 181.469C30.9382 172.696 19.8124 156.3 21.2568 139.207C34.7335 152.105 52.3383 159.821 70.9562 160.989C78.138 161.414 86.1701 161.138 91.4567 166.017C94.7462 169.054 96.2775 173.625 96.5286 178.094C96.7797 182.564 95.8844 187.009 94.9937 191.396L95.3002 192.471C78.1463 192.535 60.4198 190.243 45.679 181.469Z" fill="#E6E6E6"/>
<path d="M21.6164 139.188C27.5226 152.1 37.3472 162.823 49.6945 169.834C52.3489 171.319 55.1709 172.596 58.1698 173.188C61.0973 173.742 64.12 173.503 66.9237 172.494C69.5567 171.606 72.1472 170.393 74.9502 170.16C77.9048 169.915 80.6401 171.055 82.7891 173.052C85.4186 175.495 87.0135 178.736 88.4629 181.961C90.0723 185.541 91.6872 189.285 94.7729 191.86C95.1468 192.172 94.6409 192.734 94.2676 192.422C88.8991 187.943 88.0228 180.441 83.7315 175.166C81.729 172.704 78.9727 170.831 75.6981 170.88C72.8347 170.923 70.1623 172.172 67.504 173.094C64.7128 174.063 61.9167 174.517 58.9699 174.091C55.9556 173.656 53.0777 172.487 50.397 171.076C44.3419 167.83 38.8348 163.652 34.0775 158.695C28.6167 153.069 24.1586 146.549 20.8962 139.419C20.6945 138.978 21.416 138.75 21.6164 139.188Z" fill="white"/>
<path d="M45.5858 167.81C44.1284 169.722 42.0388 171.054 39.6902 171.567C37.3416 172.081 34.8869 171.743 32.7646 170.614C32.3359 170.384 32.6731 169.707 33.1023 169.937C35.0767 170.992 37.3633 171.307 39.5493 170.824C41.7354 170.342 43.6769 169.093 45.0235 167.305C45.3165 166.917 45.8772 167.424 45.5858 167.81Z" fill="white"/>
<path d="M65.6478 173.12C65.0344 168.244 62.6058 163.778 58.8461 160.614C58.4734 160.3 58.9791 159.738 59.3514 160.051C63.2577 163.352 65.7756 168.004 66.4028 173.08C66.4622 173.564 65.7069 173.601 65.6478 173.12Z" fill="white"/>
<path d="M29.5542 152.714C30.2723 152.091 30.8245 151.301 31.1614 150.412C31.4983 149.524 31.6092 148.565 31.4842 147.624C31.4187 147.141 32.1741 147.104 32.2392 147.583C32.3724 148.625 32.2486 149.683 31.8786 150.665C31.5086 151.648 30.9036 152.524 30.1166 153.219C30.0478 153.291 29.9544 153.334 29.8553 153.339C29.7561 153.344 29.6587 153.312 29.5827 153.248C29.5086 153.18 29.464 153.086 29.4587 152.987C29.4533 152.887 29.4877 152.789 29.5542 152.714Z" fill="white"/>
<path d="M68.9718 106.092C69.0213 106.392 69.0708 106.692 69.126 106.995C69.8124 111.03 70.8254 115.001 72.1551 118.871C72.2531 119.172 72.357 119.475 72.4635 119.773C75.7662 129.062 80.765 137.658 87.2056 145.123C89.7712 148.091 92.5588 150.859 95.5445 153.405C99.668 156.919 104.419 160.402 107.062 164.94C107.343 165.41 107.595 165.898 107.816 166.399L96.5875 192.014C96.5328 192.059 96.4837 192.107 96.4289 192.153L96.0273 193.196C95.8642 193.076 95.6975 192.947 95.5344 192.827C95.4395 192.757 95.347 192.682 95.2521 192.612C95.1896 192.564 95.1272 192.516 95.0681 192.476C95.0472 192.46 95.0265 192.444 95.0114 192.43C94.9523 192.39 94.9016 192.347 94.8483 192.31C93.9149 191.594 92.9849 190.871 92.0584 190.139C92.0526 190.137 92.0526 190.137 92.0492 190.129C85.0036 184.539 78.3628 178.311 72.8782 171.274C72.7133 171.062 72.5424 170.848 72.3826 170.625C69.928 167.439 67.7379 164.058 65.8342 160.515C64.798 158.572 63.8608 156.578 63.0263 154.54C60.8802 149.27 59.5763 143.695 59.1625 138.02C58.3392 126.707 61.1433 115.256 68.4102 106.737C68.5962 106.519 68.7799 106.307 68.9718 106.092Z" fill="#E6E6E6"/>
<path d="M69.2716 106.292C66.2135 120.157 67.602 134.634 73.2399 147.665C74.4648 150.45 75.9496 153.168 77.9876 155.446C79.9912 157.651 82.5488 159.28 85.3947 160.163C88.0316 161.039 90.8304 161.63 93.2084 163.132C95.715 164.715 97.2127 167.272 97.7266 170.16C98.3553 173.693 97.6769 177.242 96.8929 180.689C96.0223 184.517 95.0575 188.479 95.9711 192.392C96.0818 192.866 95.3396 193.01 95.2291 192.537C93.6395 185.728 97.4564 179.211 97.2062 172.415C97.0895 169.244 96.0165 166.089 93.3722 164.157C91.0599 162.467 88.1743 161.855 85.4966 160.991C82.685 160.084 80.1786 158.764 78.0823 156.649C75.9378 154.486 74.3436 151.821 73.053 149.08C70.1726 142.843 68.2908 136.191 67.4766 129.369C66.5041 121.589 66.8698 113.699 68.5578 106.042C68.6625 105.568 69.3756 105.821 69.2716 106.292Z" fill="white"/>
<path d="M71.1776 143.576C68.8628 144.225 66.3926 144.03 64.2082 143.026C62.0238 142.022 60.2675 140.274 59.2528 138.095C59.049 137.653 59.7258 137.316 59.9299 137.758C60.871 139.789 62.5072 141.417 64.5432 142.348C66.5792 143.279 68.8809 143.451 71.0328 142.834C71.5006 142.7 71.6427 143.443 71.1776 143.576Z" fill="white"/>
<path d="M83.9991 159.894C86.445 155.632 87.1945 150.604 86.0981 145.813C85.9891 145.339 86.7313 145.195 86.8401 145.669C87.9718 150.656 87.1812 155.887 84.6261 160.317C84.3823 160.739 83.7566 160.314 83.9991 159.894Z" fill="white"/>
<path d="M67.4665 121.87C68.4144 121.806 69.3315 121.507 70.1354 121C70.9393 120.493 71.6048 119.795 72.0721 118.968C72.3105 118.543 72.936 118.968 72.6992 119.39C72.1786 120.302 71.4427 121.072 70.5558 121.634C69.6689 122.195 68.6579 122.531 67.6112 122.612C67.5132 122.628 67.4128 122.606 67.3304 122.551C67.2481 122.495 67.1899 122.41 67.1678 122.314C67.1491 122.215 67.17 122.113 67.2259 122.03C67.2819 121.947 67.3683 121.89 67.4665 121.87Z" fill="white"/>
<path d="M107.19 35.8642L126.129 257.574L88.2501 260.423V38.685C92.7638 35.6983 99.243 35.231 107.19 35.8642Z" fill="#CCCCCC"/>
<path d="M200.678 35.8642L181.739 257.574L219.618 260.423V38.685C215.104 35.6983 208.625 35.231 200.678 35.8642Z" fill="#CCCCCC"/>
<path d="M213.946 269.586H93.5189C91.5878 269.584 89.7365 268.816 88.371 267.45C87.0056 266.085 86.2375 264.233 86.2354 262.302V41.9389C86.2376 40.0078 87.0056 38.1565 88.3711 36.791C89.7365 35.4256 91.5879 34.6575 93.5189 34.6553H213.946C215.877 34.6575 217.729 35.4256 219.094 36.791C220.46 38.1565 221.228 40.0078 221.23 41.9389V262.302C221.228 264.233 220.46 266.085 219.094 267.45C217.729 268.816 215.877 269.584 213.946 269.586ZM93.5189 37.0731C92.2289 37.0746 90.9921 37.5877 90.0799 38.4998C89.1677 39.412 88.6546 40.6488 88.6532 41.9389V262.302C88.6546 263.592 89.1677 264.829 90.0799 265.741C90.9921 266.654 92.2288 267.167 93.5189 267.168H213.946C215.236 267.167 216.473 266.654 217.385 265.741C218.298 264.829 218.811 263.592 218.812 262.302V41.9389C218.811 40.6488 218.298 39.412 217.385 38.4999C216.473 37.5877 215.236 37.0746 213.946 37.0731L93.5189 37.0731Z" fill="#CCCCCC"/>
<path d="M220.021 71.3255H87.4442V73.7433H220.021V71.3255Z" fill="#CCCCCC"/>
<path d="M220.021 111.622H87.4442V114.04H220.021V111.622Z" fill="#CCCCCC"/>
<path d="M130.467 35.8642H128.049V145.875H130.467V35.8642Z" fill="#CCCCCC"/>
<path d="M179.416 35.8642H176.999V145.875H179.416V35.8642Z" fill="#CCCCCC"/>
<path d="M235.132 276.235H76.3626C73.477 276.235 70.7096 275.089 68.6691 273.048C66.6287 271.008 65.4824 268.241 65.4824 265.355C65.4824 262.469 66.6287 259.702 68.6691 257.661C70.7096 255.621 73.477 254.475 76.3626 254.475H235.132C238.018 254.475 240.785 255.621 242.826 257.661C244.866 259.702 246.012 262.469 246.012 265.355C246.012 268.241 244.866 271.008 242.826 273.048C240.785 275.089 238.018 276.235 235.132 276.235Z" fill="#CCCCCC"/>
<path d="M220.021 140.233H88.2501V148.292H220.021V140.233Z" fill="#CCCCCC"/>
<path d="M130.842 165.882L130.675 165.802C121.692 161.462 109.929 161.466 92.5323 165.816L92.3466 165.862L92.2909 165.679C90.4506 159.645 88.3659 152.81 92.2822 149.448C92.3371 139.581 100.992 131.569 111.623 131.569C122.252 131.569 130.905 139.577 130.963 149.441C136.789 153.896 134.013 160.478 130.936 165.722L130.842 165.882Z" fill="#2F2E41"/>
<path d="M186.053 144.754C185.892 145.554 185.558 146.309 185.074 146.965C184.589 147.621 183.967 148.163 183.251 148.553C182.534 148.943 181.741 149.171 180.927 149.221C180.113 149.271 179.298 149.142 178.539 148.843L146.794 180.744L143.962 170.839L175.491 141.215C176.077 139.973 177.099 138.99 178.362 138.452C179.625 137.913 181.042 137.857 182.344 138.293C183.646 138.729 184.743 139.628 185.426 140.819C186.11 142.01 186.333 143.41 186.053 144.754Z" fill="#FFB6B6"/>
<path d="M107.596 175.466C107.596 175.466 104.716 181.992 111.822 186.017C118.929 190.042 143.767 184.481 147.797 183.705C151.827 182.929 166.88 160.402 166.88 160.402L164.751 149.355L144.788 166.685L107.596 175.466Z" fill="#418596"/>
<path d="M102.354 211.559L102.757 219.215C102.757 219.215 101.568 225.997 102.546 227.461C103.517 228.917 130.008 229.101 130.008 229.101C130.008 229.101 131.759 219.665 133.266 211.405L102.354 211.559Z" fill="#FFB6B6"/>
<path d="M178.521 312.793L184.059 311.674L182.474 289.304L174.3 290.955L178.521 312.793Z" fill="#FFB6B6"/>
<path d="M186.454 283.681L191.603 281.366L184.924 259.962L177.324 263.379L186.454 283.681Z" fill="#FFB6B6"/>
<path d="M190.939 271.621L181.244 277.11L157.335 238.69C140.551 249.998 124.138 255.413 107.593 258.303C101.999 259.299 96.2953 258.794 95.2213 253.101C95.1711 252.834 95.1311 252.567 95.1012 252.298C94.4406 246.079 102.177 238.107 103.16 230.498L124.332 229.227L126.943 232.575L151.428 217.521C156.352 214.494 162.828 216.131 165.893 221.178C166.055 221.445 166.205 221.718 166.344 221.998L190.939 271.621Z" fill="#2F2E41"/>
<path d="M185.005 297.466L173.912 298.497L153.799 257.362C133.854 260.792 115.037 261.891 98.7618 257.741C93.2514 256.356 89.883 250.666 91.2384 245.033C91.3017 244.769 91.375 244.509 91.4581 244.251C93.406 238.308 98.5048 234.103 102.522 227.567L131.865 228.012L128.587 239.321L157.092 235.632C162.824 234.89 168.06 239.039 168.785 244.899C168.824 245.209 168.849 245.52 168.86 245.832L185.005 297.466Z" fill="#2F2E41"/>
<path d="M113.811 160.034C120.392 160.034 125.726 154.7 125.726 148.119C125.726 141.539 120.392 136.204 113.811 136.204C107.231 136.204 101.896 141.539 101.896 148.119C101.896 154.7 107.231 160.034 113.811 160.034Z" fill="#FFB6B6"/>
<path d="M106.826 164.335L117.751 165.621C118.212 165.675 118.644 165.871 118.988 166.183C119.332 166.494 119.569 166.905 119.669 167.359L121.406 175.309L132.236 188.063C132.236 188.063 136.125 195.355 134.667 203.619C133.209 211.884 132.568 218.025 132.568 218.025C132.568 218.025 103.515 228.918 102.543 227.459C101.571 226.001 101.255 219.376 101.255 219.376L97.3661 176.11C97.3661 176.11 101.741 168.818 104.172 168.818C105.741 168.765 105.54 165.234 106.826 164.335Z" fill="#418596"/>
<path d="M132.863 220.685C134.395 220.685 135.637 219.195 135.637 217.356C135.637 215.518 134.395 214.027 132.863 214.027C131.331 214.027 130.089 215.518 130.089 217.356C130.089 219.195 131.331 220.685 132.863 220.685Z" fill="#418596"/>
<path d="M175.772 307.033L184.216 302.801L185.808 306.514L196.485 308.672C197.012 308.779 197.492 309.051 197.853 309.45C198.215 309.848 198.44 310.351 198.495 310.887C198.55 311.422 198.433 311.961 198.16 312.424C197.887 312.888 197.474 313.253 196.979 313.465L186.663 317.887L183.31 314.977L184.19 318.947L180.3 320.614L175.772 307.033Z" fill="#2F2E41"/>
<path d="M184.038 281.9L192.405 277.521L194.062 281.205L204.776 283.175C205.305 283.272 205.789 283.536 206.157 283.928C206.526 284.32 206.76 284.82 206.824 285.354C206.889 285.888 206.781 286.429 206.517 286.897C206.252 287.366 205.845 287.737 205.354 287.958L195.117 292.561L191.714 289.71L192.664 293.664L188.804 295.399L184.038 281.9Z" fill="#2F2E41"/>
<path d="M107.004 144.382C103.856 144.387 100.784 143.418 98.2089 141.607L98.1229 141.547V141.442C98.1264 138.397 99.3375 135.478 101.491 133.325C103.644 131.172 106.563 129.961 109.608 129.957H114.443C117.488 129.961 120.407 131.172 122.56 133.325C124.713 135.478 125.924 138.397 125.928 141.442C125.925 142.139 125.649 142.807 125.161 143.304C124.672 143.801 124.009 144.088 123.312 144.103L107.276 144.379C107.185 144.381 107.094 144.382 107.004 144.382Z" fill="#2F2E41"/>
<path d="M126.734 139.236C128.276 138.346 128.533 135.906 127.309 133.786C126.085 131.666 123.843 130.668 122.301 131.559C120.759 132.449 120.501 134.889 121.725 137.009C122.95 139.129 125.192 140.127 126.734 139.236Z" fill="#2F2E41"/>
<path d="M102.619 136.871C104.35 135.14 104.733 132.716 103.474 131.457C102.215 130.198 99.7908 130.581 98.0598 132.312C96.3287 134.043 95.946 136.467 97.205 137.726C98.4639 138.985 100.888 138.602 102.619 136.871Z" fill="#2F2E41"/>
<path d="M208.068 245.811H196.176C195.907 245.81 195.642 245.868 195.399 245.981C195.155 246.094 194.939 246.258 194.766 246.463C194.327 246.382 193.876 246.407 193.448 246.534C193.021 246.662 192.63 246.889 192.308 247.197C191.985 247.506 191.74 247.886 191.593 248.307C191.446 248.728 191.401 249.178 191.462 249.62C191.522 250.062 191.687 250.483 191.942 250.849C192.197 251.215 192.535 251.515 192.928 251.725C193.322 251.935 193.759 252.049 194.205 252.057C194.651 252.065 195.093 251.967 195.493 251.771L196.48 254.976C196.597 255.356 196.832 255.689 197.152 255.925C197.471 256.161 197.858 256.288 198.256 256.288H205.988C206.385 256.288 206.772 256.161 207.092 255.925C207.412 255.689 207.647 255.356 207.764 254.976L209.844 248.216C209.93 247.938 209.949 247.644 209.9 247.357C209.851 247.07 209.736 246.799 209.563 246.565C209.39 246.331 209.165 246.141 208.905 246.01C208.646 245.879 208.359 245.811 208.068 245.811ZM194.264 251.251C193.73 251.251 193.217 251.039 192.839 250.661C192.461 250.283 192.249 249.771 192.249 249.236C192.249 248.702 192.461 248.189 192.839 247.811C193.217 247.434 193.73 247.221 194.264 247.221C194.301 247.221 194.335 247.23 194.371 247.232C194.291 247.557 194.301 247.897 194.4 248.216L195.251 250.982C194.951 251.156 194.611 251.249 194.264 251.251Z" fill="#3F3D56"/>
<path d="M154.963 237.063C154.15 237.139 153.332 237.035 152.564 236.759C151.796 236.484 151.099 236.043 150.52 235.469C149.941 234.894 149.495 234.2 149.213 233.435C148.931 232.669 148.821 231.851 148.89 231.039L109.222 209.781L117.898 204.226L155.323 225.929C156.681 226.135 157.916 226.832 158.794 227.887C159.672 228.943 160.133 230.284 160.088 231.656C160.044 233.029 159.497 234.337 158.553 235.334C157.608 236.33 156.331 236.946 154.963 237.063Z" fill="#FFB6B6"/>
<path d="M103.032 170.716C103.032 170.716 95.9533 169.83 94.1365 177.793C92.3197 185.755 104.773 207.953 106.673 211.591C108.574 215.229 134.471 223.186 134.471 223.186L144.444 217.977L122.115 203.825L103.032 170.716Z" fill="#418596"/>
<path d="M152.927 137.815H155.344C156.52 137.815 157.648 138.282 158.479 139.114C159.31 139.945 159.777 141.072 159.777 142.248H148.494C148.494 141.072 148.961 139.945 149.792 139.114C150.624 138.282 151.751 137.815 152.927 137.815Z" fill="#CCCCCC"/>
<path d="M76.2584 55.1122C89.4874 55.1122 100.212 44.388 100.212 31.159C100.212 17.93 89.4874 7.20581 76.2584 7.20581C63.0294 7.20581 52.3052 17.93 52.3052 31.159C52.3052 44.388 63.0294 55.1122 76.2584 55.1122Z" fill="#FF6584"/>
<path d="M149.597 29.9107C143.258 23.2608 135.896 17.1942 127.18 13.9885C124.753 13.0917 122.235 12.4591 119.672 12.1016C119.651 12.0988 119.632 12.103 119.611 12.1013C119.57 12.0906 119.527 12.0823 119.485 12.0765C115.9 11.6198 112.261 11.8394 108.757 12.7241C107.043 13.1541 105.372 13.7365 103.762 14.4642C102.146 15.2523 100.581 16.1395 99.0748 17.1205C95.8867 19.0289 92.3765 20.3383 88.7175 20.9844C86.8808 21.315 85.0206 21.4976 83.1547 21.5303C81.5357 21.5628 80.0088 21.6191 78.4749 22.204C76.8363 22.8201 75.3645 23.8108 74.1767 25.0968C72.989 26.3828 72.1183 27.9287 71.6342 29.6109C71.5968 29.7608 71.6081 29.9186 71.6663 30.0616C71.7245 30.2046 71.8266 30.3254 71.9579 30.4066C72.3728 30.7037 72.7774 31.0409 73.2133 31.3057C73.6011 31.4832 74.0154 31.5962 74.4396 31.6401C75.1327 31.7864 75.8268 31.9284 76.5216 32.0661C79.0816 32.5733 81.6522 33.0223 84.2334 33.4131C89.4565 34.2037 94.7078 34.7607 99.9872 35.0839C110.564 35.7246 121.176 35.4056 131.695 34.131C137.606 33.415 143.478 32.3994 149.287 31.0883C149.404 31.0539 149.511 30.9897 149.596 30.9019C149.682 30.8142 149.743 30.7058 149.775 30.5873C149.806 30.4688 149.806 30.3443 149.775 30.2257C149.744 30.1072 149.683 29.9987 149.597 29.9107Z" fill="#E6E6E6"/>
<path d="M77.3952 45.9261C74.9675 45.0293 72.4502 44.3967 69.8869 44.0393C69.8663 44.0364 69.8468 44.0406 69.8263 44.0389C69.7846 44.0282 69.7423 44.0199 69.6996 44.0141C66.1146 43.5574 62.4758 43.7771 58.9717 44.6618C57.2582 45.0918 55.5865 45.6741 53.9767 46.4018C52.3612 47.19 50.7959 48.0771 49.2897 49.0581C46.1015 50.9665 42.5914 52.276 38.9323 52.922C37.0957 53.2527 35.2354 53.4352 33.3695 53.468C31.7505 53.5004 30.2237 53.5567 28.6897 54.1416C27.0512 54.7578 25.5793 55.7484 24.3916 57.0344C23.2039 58.3204 22.3332 59.8662 21.849 61.5485C21.8117 61.6983 21.8229 61.8561 21.8811 61.9991C21.9393 62.1421 22.0414 62.263 22.1728 62.3441C22.5877 62.6413 22.9922 62.9785 23.4282 63.2433C23.816 63.4208 24.2302 63.5338 24.6545 63.5777C25.3476 63.724 26.0416 63.866 26.7365 64.0037C29.2964 64.5109 31.8671 64.9599 34.4483 65.3506C39.6714 66.1413 44.9226 66.6983 50.2021 67.0215C60.7784 67.6622 71.391 67.3432 81.9097 66.0686C87.8213 65.3525 93.6927 64.337 99.5014 63.0259C99.619 62.9915 99.7257 62.9273 99.8112 62.8395C99.8967 62.7517 99.9581 62.6434 99.9894 62.5249C100.021 62.4064 100.021 62.2819 99.9898 62.1633C99.9587 62.0448 99.8976 61.9363 99.8123 61.8483C93.4731 55.1984 86.1108 49.1319 77.3952 45.9261Z" fill="#E6E6E6"/>
<path d="M250.132 224.493L231.712 200.295L217.177 208.513L247.977 245.087L250.132 224.493Z" fill="#3F3D56"/>
<path d="M292.563 185.156C292.972 195.297 294.544 205.358 297.246 215.141C296.666 216.507 296.066 217.864 295.449 219.211C293.11 224.313 290.493 229.283 287.607 234.097C279.514 247.615 269.411 259.824 257.646 270.303C256.373 271.436 255.082 272.549 253.774 273.644C246.315 263.36 242.289 252.013 240.697 240.335C240.496 238.852 240.331 237.353 240.206 235.862V235.854C239.9 232.23 239.802 228.592 239.911 224.957C239.915 224.667 239.924 224.373 239.936 224.079C240.077 220.194 240.427 216.302 240.955 212.445V212.441C241.016 211.998 241.076 211.555 241.145 211.111C241.338 209.781 241.556 208.452 241.793 207.13C243.177 199.507 245.108 191.994 247.572 184.648V184.644C247.64 184.431 247.709 184.221 247.785 184.012C248.051 183.214 248.321 182.424 248.599 181.634C248.617 181.572 248.638 181.512 248.664 181.453C249.023 180.421 249.389 179.398 249.764 178.382C249.865 178.1 249.97 177.818 250.078 177.536C250.501 176.404 250.933 175.279 251.372 174.171C251.509 173.817 251.65 173.462 251.791 173.111C251.9 172.841 252.005 172.571 252.117 172.305V172.301C252.758 170.718 253.407 169.165 254.064 167.643C255.905 163.364 257.799 159.338 259.645 155.627L259.649 155.623C267.309 140.257 274.273 130.28 274.273 130.28L300.421 138.742C297.302 144.275 294.888 152.435 293.567 162.062C292.548 169.714 292.213 177.441 292.563 185.152L292.563 185.156Z" fill="#3F3D56"/>
<path d="M249.103 182.694C248.95 182.335 248.777 181.985 248.599 181.634C247.68 179.854 246.497 178.224 245.09 176.799C244.88 176.585 244.662 176.371 244.437 176.17C242.01 173.934 239.058 172.346 235.855 171.553C232.651 170.76 229.3 170.787 226.11 171.632L226.094 171.641L225.973 171.673L226.001 171.81C226.122 172.448 226.297 173.075 226.525 173.684C226.585 173.849 226.654 174.006 226.722 174.163C226.751 174.236 226.787 174.3 226.819 174.373C226.819 174.373 226.815 174.377 226.823 174.377C226.823 174.381 226.827 174.385 226.827 174.389C226.904 174.538 226.976 174.691 227.057 174.836C226.892 174.679 226.734 174.518 226.581 174.352C226.432 174.199 226.295 174.038 226.158 173.877C225.688 173.329 225.264 172.744 224.889 172.128L224.824 172.019L224.711 172.064C223.191 172.591 221.74 173.301 220.392 174.179L220.247 174.276C219.217 174.952 218.057 175.404 216.841 175.602C215.626 175.801 214.382 175.742 213.191 175.428C211.313 174.944 209.355 174.856 207.441 175.169C205.527 175.481 203.699 176.189 202.073 177.246C200.996 177.948 200.022 178.797 199.179 179.768C199.107 179.853 199.034 179.942 198.962 180.026C198.809 180.212 198.664 180.401 198.523 180.594C197.008 182.619 196.078 185.021 195.835 187.538L195.827 187.63L195.903 187.683C197.267 188.617 198.809 189.259 200.433 189.569C199.413 189.711 198.38 189.737 197.354 189.645H197.35C196.885 189.607 196.422 189.542 195.964 189.452L195.879 189.436H195.875L195.77 189.416L195.786 189.609C195.907 192.071 196.682 194.457 198.031 196.52L198.071 196.576C198.086 196.597 198.1 196.618 198.112 196.641C198.683 197.515 199.159 198.449 199.53 199.425C200.472 201.852 200.68 204.502 200.126 207.045C199.5 209.766 199.708 212.612 200.723 215.212C201.738 217.813 203.513 220.047 205.816 221.625C207.84 223.017 210.197 223.844 212.647 224.022C212.981 224.051 213.32 224.067 213.658 224.067C215.596 224.073 217.513 223.673 219.288 222.894L219.352 222.87L219.368 222.797C219.709 221.696 220.189 220.643 220.795 219.662C220.596 220.435 220.496 221.23 220.496 222.028V222.294L220.726 222.161C220.924 222.044 221.125 221.919 221.306 221.802C222.395 221.091 223.381 220.234 224.236 219.255C224.57 218.868 224.909 218.494 225.264 218.119L225.268 218.115C225.957 217.382 226.686 216.664 227.444 215.979C229.055 214.532 230.78 213.215 232.602 212.042C234.422 210.873 236.325 209.839 238.296 208.947H238.3C238.521 208.843 238.747 208.742 238.969 208.645C239.95 208.218 240.895 207.711 241.793 207.13C241.826 207.11 241.854 207.094 241.882 207.074C245.777 204.523 248.641 200.673 249.964 196.208C251.286 191.744 250.981 186.955 249.103 182.694Z" fill="#418596"/>
<path opacity="0.15" d="M200.79 212.767C200.68 213.257 200.597 213.752 200.541 214.251C199.791 211.88 199.682 209.353 200.226 206.927C200.31 206.555 200.372 206.18 200.422 205.802C201.166 208.049 201.294 210.454 200.79 212.767Z" fill="black"/>
<path opacity="0.15" d="M201.095 195.287C199.901 195.453 198.691 195.458 197.496 195.304C197.183 194.714 196.913 194.102 196.687 193.473C198.018 194.371 199.518 194.988 201.095 195.287Z" fill="black"/>
<path opacity="0.15" d="M197.4 189.516C196.959 190.642 196.667 191.822 196.529 193.024C196.161 191.879 195.944 190.691 195.884 189.49L195.874 189.297L196.064 189.333C196.506 189.417 196.952 189.477 197.4 189.516Z" fill="black"/>
<path opacity="0.15" d="M202.177 177.126C203.801 176.068 205.628 175.359 207.541 175.046C209.454 174.733 211.411 174.821 213.288 175.306C214.48 175.621 215.724 175.682 216.941 175.484C218.157 175.285 219.318 174.833 220.348 174.156L220.494 174.06C221.841 173.18 223.291 172.467 224.811 171.939L224.927 171.899L224.991 172.004C225.592 172.998 226.32 173.909 227.157 174.714C226.649 173.767 226.293 172.746 226.102 171.688L226.075 171.548L226.212 171.512C229.204 170.72 232.341 170.647 235.366 171.298C238.392 171.949 241.221 173.306 243.622 175.259C246.023 177.212 247.929 179.704 249.183 182.534C250.438 185.363 251.005 188.449 250.84 191.539C250.205 189.02 249.077 186.651 247.52 184.571C245.964 182.491 244.01 180.74 241.771 179.42C239.533 178.101 237.055 177.238 234.481 176.883C231.907 176.528 229.289 176.687 226.777 177.352L226.639 177.388L226.667 177.528C226.857 178.586 227.213 179.607 227.722 180.554C226.885 179.749 226.156 178.838 225.555 177.844L225.492 177.739L225.376 177.779C223.855 178.308 222.406 179.02 221.058 179.9L220.913 179.996C219.883 180.673 218.722 181.125 217.506 181.324C216.289 181.522 215.045 181.462 213.853 181.147C210.733 180.337 207.43 180.635 204.505 181.989C201.58 183.343 199.216 185.669 197.815 188.572C197.191 188.272 196.587 187.934 196.004 187.56L195.925 187.51L195.935 187.417C196.135 185.343 196.8 183.341 197.881 181.559C198.962 179.778 200.43 178.262 202.177 177.126Z" fill="black"/>
<path d="M351.985 74.1624L351.602 73.9085L351.324 74.2712C349.172 76.9805 347.46 80.0117 346.251 83.2533C346.418 79.5189 347.071 75.822 348.193 72.2563L348.314 71.8816L347.968 71.6841C343.459 69.131 338.655 67.139 333.662 65.7524L333.118 65.6073C329.292 64.5574 325.73 62.7128 322.664 60.1938C319.599 57.6747 317.099 54.5378 315.327 50.9876C311.21 42.8398 304.706 36.1414 296.683 31.7861C288.66 27.4308 279.5 25.6258 270.424 26.6121H270.42C270.324 26.6201 270.223 26.6322 270.126 26.6443C269.961 26.6604 269.8 26.6806 269.638 26.7007C269.308 26.745 268.986 26.7894 268.663 26.8377C268.389 26.878 268.111 26.9223 267.837 26.9707C267.692 26.9908 267.551 27.015 267.41 27.0432C267.269 27.0674 267.124 27.0916 266.983 27.1198H266.979C264.273 27.6316 261.621 28.3938 259.057 29.3966H259.052V29.4006L258.404 29.6544C257.735 29.9285 257.071 30.2186 256.413 30.5249C256.264 30.5934 256.119 30.6659 255.97 30.7344C255.929 30.7546 255.885 30.7747 255.845 30.7989C255.422 31.0004 255.003 31.2099 254.588 31.4315C254.527 31.4598 254.467 31.492 254.406 31.5242L254.019 31.7297C253.169 32.1891 252.334 32.6767 251.513 33.1925C251.444 33.2328 251.38 33.2731 251.311 33.3174C251.239 33.3658 251.162 33.4141 251.09 33.4625C251.045 33.4867 251.001 33.5189 250.957 33.5471C250.832 33.6237 250.711 33.7043 250.59 33.7889C250.348 33.9461 250.107 34.1073 249.869 34.2725C249.623 34.4377 249.381 34.611 249.139 34.7842L248.898 34.9575L248.942 35.2557C248.982 35.5015 249.019 35.7473 249.063 35.9891C249.103 36.2309 249.144 36.4687 249.188 36.7064C249.256 37.1053 249.333 37.5003 249.409 37.8831C249.462 38.1369 249.51 38.3868 249.567 38.6326C249.619 38.8865 249.675 39.1403 249.736 39.3942C249.853 39.9181 249.978 40.4258 250.111 40.9255C250.175 41.1753 250.244 41.4252 250.316 41.671C250.356 41.8201 250.397 41.9692 250.441 42.1142C250.473 42.215 250.506 42.3157 250.538 42.4165C250.546 42.4487 250.554 42.485 250.566 42.5212C250.575 42.5554 250.586 42.589 250.598 42.622C250.643 42.7711 250.687 42.9162 250.731 43.0572C250.755 43.1338 250.78 43.2103 250.808 43.2829C250.864 43.4561 250.925 43.6334 250.985 43.8027C251.05 43.9961 251.118 44.1895 251.187 44.3789C251.203 44.4273 251.219 44.4716 251.235 44.52C251.247 44.5562 251.259 44.5925 251.275 44.6288C251.291 44.6691 251.307 44.7134 251.324 44.7537C251.392 44.935 251.461 45.1204 251.533 45.3017C251.557 45.3662 251.581 45.4347 251.61 45.4992C252.263 47.1408 253.065 48.719 254.007 50.2139C252.964 49.3193 251.959 48.371 250.993 47.369C249.502 45.8196 248.128 44.1615 246.883 42.4084C246.782 42.2714 246.681 42.1304 246.589 41.9893C246.399 41.7193 246.214 41.4493 246.033 41.1753C245.839 40.8932 245.654 40.5991 245.472 40.3089C245.352 40.1155 245.231 39.9181 245.114 39.7246C244.997 39.5393 244.888 39.3579 244.783 39.1726L244.469 38.6326H244.465V38.6366L244.022 39.0718C243.844 39.2451 243.667 39.4184 243.494 39.5916C238.078 45.0411 234.155 51.7922 232.102 59.1961L232.042 59.4177L231.981 59.6474C231.864 60.0584 231.747 60.4574 231.622 60.8644V60.8684C231.502 61.2714 231.373 61.6743 231.236 62.0692C231.111 62.444 230.982 62.8147 230.845 63.1855C230.8 63.3104 230.752 63.4353 230.7 63.5602C230.615 63.802 230.522 64.0398 230.43 64.2815C230.385 64.3903 230.341 64.5032 230.297 64.612C230.188 64.8779 230.079 65.1439 229.97 65.4058C229.954 65.4461 229.934 65.4904 229.914 65.5307C229.882 65.6113 229.845 65.6919 229.813 65.7685C229.728 65.9619 229.64 66.1594 229.555 66.3528C229.495 66.4777 229.438 66.6067 229.382 66.7316C229.358 66.788 229.33 66.8444 229.305 66.9008C229.156 67.2232 229.003 67.5415 228.842 67.8559C228.661 68.2266 228.475 68.5974 228.278 68.96C228.105 69.2985 227.923 69.629 227.734 69.9594C227.407 70.5437 227.065 71.124 226.71 71.6881C226.573 71.9057 226.436 72.1233 226.295 72.3409C226.263 72.3933 226.231 72.4457 226.198 72.4941C226.082 72.6835 225.961 72.8648 225.836 73.0502C225.751 73.1751 225.667 73.3 225.582 73.4209C225.441 73.6385 225.292 73.848 225.139 74.0536C225.098 74.118 225.054 74.1785 225.01 74.2389C224.784 74.5532 224.558 74.8595 224.329 75.1657C224.321 75.1698 224.321 75.1738 224.317 75.1778C224.309 75.1778 224.309 75.1819 224.305 75.1859C224.204 75.3189 224.103 75.4519 223.998 75.5808C223.861 75.7702 223.712 75.9556 223.563 76.1369C223.321 76.4432 223.067 76.7534 222.81 77.0557C222.801 77.0637 222.797 77.0718 222.789 77.0758C221.454 78.6446 220.008 80.1152 218.461 81.4762C218.433 81.5004 218.413 81.5246 218.385 81.5447C218.167 81.7341 217.95 81.9235 217.724 82.1089C217.631 82.1855 217.539 82.262 217.446 82.3386C217.293 82.4675 217.136 82.5965 216.983 82.7133C216.964 82.7319 216.944 82.7481 216.922 82.7617C216.785 82.8745 216.652 82.9793 216.515 83.0841C216.35 83.2171 216.185 83.342 216.015 83.4669C215.218 84.0714 214.398 84.6422 213.557 85.1795C213.432 85.2641 213.299 85.3488 213.171 85.4294C213.094 85.4777 213.017 85.5261 212.945 85.5664C212.639 85.7558 212.332 85.9411 212.026 86.1184C211.72 86.2998 211.405 86.473 211.095 86.6423C210.43 87.005 209.773 87.3838 209.133 87.7787C208.81 87.9802 208.488 88.1816 208.17 88.3872C206.904 89.2092 205.686 90.089 204.515 91.0266C203.344 91.9647 202.221 92.9613 201.15 94.0126C201.017 94.1415 200.884 94.2745 200.751 94.4115C200.485 94.6735 200.227 94.9394 199.981 95.2054C199.586 95.6124 199.208 96.0315 198.833 96.4546C196.857 98.6968 195.107 101.129 193.61 103.716C192.859 105.008 192.175 106.338 191.563 107.701C191.1 108.721 190.677 109.765 190.294 110.82C190.04 111.526 189.802 112.238 189.581 112.956C189.472 113.315 189.367 113.677 189.266 114.04C188.924 115.269 188.638 116.51 188.404 117.755C188.215 118.755 188.062 119.756 187.945 120.758C187.884 121.261 187.836 121.765 187.792 122.265C187.688 123.493 187.635 124.722 187.633 125.953C187.625 129.644 188.074 133.323 188.968 136.905C189.166 137.694 189.385 138.48 189.625 139.262C189.746 139.653 189.875 140.04 190.004 140.427C190.33 141.394 190.692 142.351 191.088 143.3C191.326 143.868 191.575 144.432 191.837 144.992C193.502 148.553 195.626 151.88 198.156 154.889C198.571 155.385 198.999 155.872 199.441 156.352C199.445 156.352 199.441 156.356 199.441 156.356C200.538 157.552 201.699 158.687 202.919 159.757H202.923C203.411 160.188 203.906 160.606 204.41 161.01C204.414 161.006 204.414 161.01 204.414 161.01C204.922 161.421 205.433 161.816 205.957 162.199C206.219 162.388 206.485 162.578 206.755 162.767C207.283 163.142 207.822 163.503 208.371 163.851H208.375C208.923 164.206 209.479 164.544 210.043 164.867C211.176 165.515 212.336 166.124 213.529 166.676L213.731 166.769L213.936 166.676C215.849 165.815 217.82 165.092 219.836 164.512C220.279 164.383 220.726 164.266 221.169 164.153C222.29 163.875 223.418 163.642 224.554 163.452C223.447 164.008 222.378 164.636 221.355 165.334C220.561 165.87 219.779 166.454 218.993 167.099C218.731 167.313 218.47 167.534 218.208 167.76L217.555 168.324L218.373 168.594C218.671 168.691 218.969 168.787 219.267 168.876C219.674 169.005 220.077 169.122 220.472 169.231C221.335 169.473 222.202 169.686 223.075 169.871C223.289 169.916 223.499 169.96 223.712 170.004C224.127 170.085 224.546 170.166 224.965 170.238C224.983 170.243 225 170.245 225.018 170.246C225.453 170.319 225.892 170.387 226.327 170.448C227.137 170.565 227.947 170.657 228.757 170.726C228.846 170.738 228.935 170.742 229.027 170.746C229.225 170.762 229.418 170.778 229.616 170.79C230.051 170.818 230.49 170.839 230.929 170.855C230.962 170.855 230.99 170.859 231.022 170.859C231.244 170.867 231.465 170.875 231.687 170.879C231.687 170.879 231.687 170.883 231.691 170.879C231.913 170.883 232.134 170.887 232.356 170.887H233.581C233.811 170.887 234.04 170.891 234.274 170.891C234.596 170.891 234.923 170.895 235.245 170.899C235.33 170.899 235.418 170.903 235.507 170.903C236.023 170.911 236.539 170.923 237.054 170.935C237.087 170.935 237.119 170.939 237.151 170.939C237.667 170.955 238.183 170.972 238.699 170.996C238.811 171 238.924 171.004 239.041 171.012C239.537 171.032 240.032 171.056 240.528 171.084C240.669 171.092 240.814 171.105 240.959 171.113C241.334 171.133 241.713 171.157 242.088 171.185C242.309 171.197 242.527 171.213 242.748 171.233C243.643 171.302 244.534 171.379 245.428 171.467C245.726 171.491 246.025 171.524 246.323 171.556C247.121 171.64 247.921 171.733 248.724 171.834C249.083 171.874 249.442 171.923 249.8 171.971C249.841 171.975 249.881 171.979 249.921 171.987C250.365 172.047 250.804 172.108 251.247 172.172C251.537 172.213 251.827 172.257 252.117 172.301C252.416 172.346 252.714 172.39 253.012 172.442C253.173 172.467 253.334 172.495 253.5 172.523C253.886 172.583 254.277 172.648 254.668 172.72C254.703 172.724 254.738 172.729 254.773 172.737C255.603 172.882 256.437 173.035 257.267 173.2C257.755 173.293 258.239 173.389 258.722 173.49C259.101 173.567 259.48 173.647 259.858 173.728C259.923 173.74 259.987 173.756 260.052 173.772C260.066 173.776 260.081 173.779 260.096 173.78C260.668 173.905 261.245 174.034 261.817 174.171C263.804 174.631 265.787 175.141 267.769 175.702C268.224 175.827 268.679 175.96 269.135 176.093C269.328 176.15 269.518 176.206 269.707 176.263C270.102 176.379 270.493 176.496 270.888 176.621C271.234 176.726 271.585 176.835 271.931 176.948C272.149 177.016 272.367 177.085 272.584 177.157C272.923 177.262 273.261 177.371 273.596 177.488C273.882 177.576 274.164 177.669 274.446 177.77C274.849 177.903 275.256 178.04 275.659 178.185C275.776 178.225 275.897 178.265 276.013 178.31C276.505 178.479 276.997 178.652 277.488 178.833C277.968 179.007 278.447 179.184 278.923 179.361C279.253 179.486 279.584 179.607 279.91 179.736C280.277 179.877 280.644 180.018 281.006 180.163C281.53 180.369 282.058 180.578 282.582 180.792C283.065 180.985 283.545 181.183 284.029 181.388C284.117 181.425 284.21 181.461 284.299 181.501C284.718 181.674 285.137 181.856 285.552 182.037C285.822 182.15 286.088 182.267 286.354 182.384C287.514 182.891 288.673 183.417 289.831 183.959H289.835C290.561 184.302 291.298 184.628 292.04 184.938C292.213 185.011 292.386 185.084 292.563 185.152C292.858 185.277 293.156 185.394 293.454 185.515C293.647 185.591 293.841 185.668 294.038 185.74C294.324 185.853 294.615 185.962 294.905 186.067C295.211 186.18 295.513 186.292 295.823 186.397C295.932 186.438 296.041 186.474 296.154 186.514C296.513 186.635 296.871 186.756 297.234 186.873C297.27 186.885 297.306 186.897 297.347 186.909C297.725 187.03 298.104 187.151 298.487 187.264C298.517 187.275 298.548 187.284 298.58 187.292C298.991 187.417 299.41 187.538 299.825 187.654C300.437 187.824 301.054 187.985 301.671 188.134C301.783 188.162 301.896 188.19 302.009 188.215C302.339 188.295 302.666 188.372 302.996 188.444C303.347 188.525 303.701 188.597 304.052 188.67C304.407 188.742 304.761 188.815 305.112 188.88C305.301 188.916 305.491 188.952 305.676 188.984L306.172 189.069C306.514 189.129 306.857 189.182 307.203 189.238C307.213 189.238 307.222 189.239 307.231 189.242C307.622 189.303 308.009 189.359 308.4 189.407C308.775 189.46 309.15 189.504 309.524 189.548C309.601 189.556 309.682 189.565 309.762 189.573C310.072 189.609 310.383 189.645 310.693 189.673C310.782 189.681 310.87 189.689 310.959 189.698C311.265 189.726 311.571 189.754 311.878 189.774C311.939 189.782 312.001 189.786 312.063 189.786C312.337 189.81 312.611 189.831 312.885 189.843C313.079 189.859 313.268 189.867 313.461 189.879C313.562 189.883 313.659 189.887 313.76 189.891C314.026 189.907 314.292 189.915 314.561 189.923C314.888 189.935 315.214 189.943 315.537 189.951C315.928 189.959 316.322 189.963 316.713 189.963H316.721C317.104 189.963 317.491 189.959 317.874 189.951H318.019L318.442 189.939C318.66 189.935 318.877 189.927 319.091 189.919C319.502 189.903 319.909 189.883 320.316 189.859C320.477 189.851 320.642 189.839 320.804 189.831C320.876 189.826 320.953 189.818 321.025 189.814C321.279 189.798 321.529 189.782 321.783 189.762C322.045 189.742 322.311 189.718 322.573 189.689C322.911 189.657 323.25 189.621 323.588 189.585C323.854 189.556 324.12 189.524 324.382 189.492C324.417 189.489 324.452 189.484 324.487 189.476C324.741 189.448 324.994 189.415 325.244 189.379C325.542 189.339 325.837 189.295 326.131 189.25C326.163 189.246 326.191 189.242 326.223 189.238C326.731 189.158 327.243 189.077 327.755 188.984C328.291 188.888 328.827 188.783 329.359 188.674C329.556 188.634 329.749 188.589 329.947 188.549C330.056 188.525 330.169 188.505 330.273 188.481C330.439 188.444 330.6 188.408 330.761 188.368C330.789 188.364 330.821 188.356 330.85 188.352C331.075 188.303 331.297 188.247 331.523 188.19C331.974 188.082 332.417 187.969 332.86 187.848C333.058 187.8 333.255 187.747 333.445 187.695C333.501 187.679 333.557 187.663 333.61 187.646C334.428 187.417 335.239 187.174 336.044 186.917C336.398 186.804 336.749 186.687 337.1 186.562C337.853 186.305 338.6 186.033 339.34 185.748C339.538 185.676 339.735 185.595 339.933 185.519C340.223 185.402 340.513 185.285 340.799 185.168C341.057 185.059 341.315 184.951 341.577 184.838C341.706 184.785 341.834 184.729 341.963 184.673C342.35 184.503 342.737 184.33 343.12 184.157C343.378 184.036 343.632 183.919 343.886 183.798C344.289 183.605 344.688 183.407 345.086 183.21C345.187 183.157 345.284 183.105 345.381 183.057C345.635 182.928 345.888 182.795 346.146 182.666C346.553 182.448 346.96 182.231 347.363 182.005C347.5 181.932 347.633 181.856 347.77 181.779C348.214 181.529 348.653 181.276 349.088 181.018C350.051 180.441 351.001 179.84 351.937 179.212C352.171 179.059 352.404 178.898 352.634 178.741C353.069 178.443 353.496 178.136 353.924 177.83C353.968 177.798 354.008 177.766 354.053 177.737C354.266 177.58 354.48 177.423 354.693 177.262C355.137 176.927 355.576 176.589 356.015 176.242C356.023 176.238 356.035 176.226 356.047 176.218C356.245 176.061 356.442 175.904 356.636 175.747C357.236 175.259 357.828 174.764 358.409 174.252C358.695 174.006 358.977 173.752 359.255 173.498C359.464 173.309 359.674 173.119 359.879 172.926C360.294 172.535 360.701 172.148 361.104 171.753C361.306 171.56 361.503 171.358 361.705 171.157C361.902 170.955 362.104 170.754 362.301 170.548C362.37 170.48 362.438 170.407 362.507 170.335C362.708 170.121 362.91 169.904 363.111 169.69C363.285 169.505 363.454 169.311 363.627 169.118C363.917 168.796 364.211 168.473 364.497 168.147C364.513 168.128 364.529 168.111 364.546 168.094C364.562 168.074 364.578 168.058 364.59 168.042H364.586C370.443 161.269 374.795 153.329 377.354 144.747C379.913 136.166 380.62 127.139 379.429 118.264C378.238 109.389 375.175 100.868 370.444 93.2656C365.713 85.6628 359.421 79.1514 351.985 74.1624Z" fill="#418596"/>
<g opacity="0.15">
<path d="M270.421 26.6089C271.224 29.4943 272.433 32.2512 274.01 34.7972C271.369 32.5283 269.01 29.9512 266.982 27.1209C268.121 26.9055 269.267 26.7348 270.421 26.6089Z" fill="black"/>
<path d="M231.1 71.2324C228.118 72.8602 225.329 74.8204 222.788 77.0756C227.079 72.0013 230.215 66.0545 231.979 59.6474C232 59.5705 232.022 59.493 232.043 59.4159L232.103 59.1978C234.222 51.5509 238.335 44.6041 244.02 39.0681L244.467 38.6326L244.782 39.1708C246.525 42.1341 248.611 44.882 250.996 47.3577C247.341 57.6713 240.228 66.255 231.1 71.2324Z" fill="black"/>
<path d="M252.107 43.7842L252.047 44.0023C252.026 44.0794 252.004 44.1569 251.983 44.2338C251.865 44.6579 251.74 45.0787 251.611 45.4977C250.336 42.1959 249.441 38.7599 248.943 35.2558L248.896 34.9585L249.14 34.7838C252.207 32.5804 255.537 30.7699 259.054 29.3947C255.896 33.7373 253.543 38.6109 252.107 43.7842Z" fill="black"/>
<path d="M211.097 86.646C213.736 85.2013 216.206 83.4672 218.462 81.4757C213.956 86.7218 210.726 92.94 209.026 99.6432C207.325 106.346 207.199 113.352 208.659 120.112C210.119 126.872 213.124 133.202 217.439 138.606C221.754 144.01 227.262 148.341 233.531 151.261L233.735 151.355L233.938 151.263C237.324 149.733 240.895 148.649 244.56 148.038C242.272 149.203 240.14 150.65 238.212 152.347L237.561 152.91L238.378 153.18C239.084 153.414 239.791 153.629 240.477 153.819C244.51 154.942 248.679 155.5 252.865 155.477C271.886 155.355 291.055 159.752 309.838 168.547C313.059 170.052 316.4 171.287 319.827 172.238C334.759 176.396 350.699 174.9 364.598 168.038C356.762 177.1 346.516 183.754 335.05 187.225C323.585 190.697 311.369 190.845 299.823 187.652C296.396 186.701 293.055 185.466 289.834 183.96C271.051 175.166 251.882 170.768 232.862 170.89C228.675 170.914 224.506 170.356 220.473 169.233C219.787 169.042 219.08 168.827 218.375 168.594L217.557 168.324L218.209 167.76C220.136 166.064 222.268 164.616 224.556 163.451C220.891 164.062 217.32 165.147 213.934 166.676L213.731 166.768L213.527 166.674C205.999 163.17 199.592 157.643 195.022 150.71C190.452 143.776 187.899 135.709 187.647 127.409C187.395 119.109 189.454 110.902 193.595 103.704C197.735 96.5064 203.795 90.6006 211.097 86.646Z" fill="black"/>
</g>
</g>
<defs>
<clipPath id="clip0_35_1477">
<rect width="380" height="320.614" fill="white"/>
</clipPath>
</defs>
</svg>
